<svg xmlns="http://www.w3.org/2000/svg" width="381.195" height="337.568" viewBox="0 0 381.195 337.568">
  <path id="Icon_awesome-react" data-name="Icon awesome-react" d="M311.359,111.644q-6.031-2.034-12.061-3.843c.67-2.788,1.266-5.576,1.861-8.363,9.158-44.906,3.127-81-17.2-92.9-19.581-11.377-51.521.452-83.833,28.933-3.2,2.788-6.328,5.726-9.306,8.665-2.01-1.959-4.095-3.918-6.18-5.8C150.766,7.892,116.815-4.916,96.49,7.064,76.984,18.516,71.176,52.5,79.366,94.992c.819,4.219,1.712,8.363,2.755,12.583-4.765,1.356-9.455,2.863-13.848,4.445C28.515,125.959,0,147.96,0,170.715c0,23.508,30.376,47.091,71.7,61.407,3.35,1.13,6.7,2.26,10.125,3.24-1.117,4.521-2.085,8.966-2.978,13.562-7.817,41.817-1.712,74.969,17.794,86.346,20.1,11.754,53.9-.3,86.811-29.46,2.606-2.336,5.212-4.747,7.817-7.309,3.276,3.24,6.7,6.329,10.125,9.343,31.866,27.727,63.359,38.954,82.791,27.577,20.1-11.754,26.654-47.393,18.166-90.792q-1.005-4.973-2.234-10.172c2.382-.678,4.691-1.432,7-2.185,42.959-14.391,74.08-37.673,74.08-61.558C381.2,147.885,351.861,125.733,311.359,111.644ZM210.625,47.675c27.7-24.412,53.531-33.981,65.295-27.125,12.582,7.309,17.422,36.844,9.53,75.647-.521,2.562-1.042,5.048-1.712,7.535a376.957,376.957,0,0,0-50.106-7.987,379.932,379.932,0,0,0-31.717-40.009c2.9-2.788,5.733-5.425,8.711-8.062ZM124.484,209.819c3.8,6.555,7.669,13.11,11.763,19.515a333.445,333.445,0,0,1-34.546-5.651,354.7,354.7,0,0,1,12.136-33.529c3.425,6.63,6.924,13.186,10.647,19.665Zm-22.559-90.641c10.721-2.411,22.112-4.37,33.95-5.877-3.946,6.254-7.817,12.658-11.466,19.138-3.648,6.4-7.222,12.96-10.572,19.59C109.147,140.8,105.2,129.8,101.925,119.178Zm20.4,51.913c4.914-10.4,10.274-20.569,15.933-30.59s11.763-19.741,18.166-29.31c11.168-.829,22.559-1.281,34.174-1.281s23.08.452,34.174,1.281q9.493,14.24,18.092,29.159t16.156,30.44q-7.482,15.6-16.082,30.741c-5.658,10.021-11.689,19.741-18.017,29.385-11.093.829-22.633,1.206-34.322,1.206s-23.006-.377-33.95-1.055q-9.716-14.353-18.315-29.385c-5.733-10.021-11.019-20.193-16.007-30.59Zm134.461,38.577c3.8-6.63,7.371-13.336,10.87-20.117a352.372,352.372,0,0,1,12.582,33.378,323.477,323.477,0,0,1-34.993,6.028C249.266,222.628,253.063,216.148,256.786,209.669Zm10.721-57.64c-3.5-6.63-7.073-13.261-10.8-19.741q-5.472-9.607-11.391-18.987a338.915,338.915,0,0,1,34.174,6.028A335.994,335.994,0,0,1,267.507,152.029Zm-76.76-84.764a330.027,330.027,0,0,1,22.038,26.974c-14.742-.678-29.557-.678-44.3,0C175.782,84.519,183.3,75.478,190.746,67.265ZM104.382,21.078c12.508-7.384,40.279,3.165,69.538,29.385,1.861,1.658,3.723,3.466,5.658,5.274a381.994,381.994,0,0,0-31.94,40.009,388.143,388.143,0,0,0-50.032,7.836C96.639,99.739,95.82,95.821,95,91.9,88,55.436,92.618,27.934,104.382,21.078ZM86.141,219.69c-3.127-.9-6.18-1.884-9.232-2.938C61.051,211.7,43.033,203.716,30,193.243a33.858,33.858,0,0,1-14-22.528c0-13.788,23.527-31.419,57.477-43.4,4.244-1.507,8.562-2.863,12.88-4.144a403.6,403.6,0,0,0,18.241,47.92A414.9,414.9,0,0,0,86.141,219.69Zm86.811,73.839a136.04,136.04,0,0,1-41.991,26.6,32.6,32.6,0,0,1-26.282.979c-11.838-6.932-16.752-33.529-10.051-69.318.819-4.219,1.712-8.439,2.755-12.583a368.328,368.328,0,0,0,50.553,7.384A396.77,396.77,0,0,0,180.1,286.823C177.717,289.159,175.335,291.419,172.952,293.529Zm18.241-18.309c-7.594-8.288-15.188-17.48-22.559-27.351,7.147.3,14.518.452,21.963.452,7.669,0,15.188-.151,22.633-.527a324.212,324.212,0,0,1-22.038,27.426Zm97.309,22.6a33.609,33.609,0,0,1-12.285,23.583c-11.838,6.932-37.077-2.11-64.327-25.768-3.127-2.712-6.254-5.651-9.455-8.665a372.1,372.1,0,0,0,31.419-40.385,362.986,362.986,0,0,0,50.776-7.911c.745,3.089,1.415,6.178,2.01,9.192a138.967,138.967,0,0,1,1.861,49.954Zm13.55-81c-2.085.678-4.169,1.356-6.328,1.959a385.453,385.453,0,0,0-18.985-48.071,383.619,383.619,0,0,0,18.241-47.393c3.871,1.13,7.594,2.336,11.168,3.541,34.695,12.055,59.041,29.988,59.041,43.7,0,14.768-25.984,33.83-63.135,46.262ZM190.6,205.525a34.511,34.511,0,1,0-34.1-34.508A34.3,34.3,0,0,0,190.6,205.525Z" transform="translate(0 -2.251)"/>
</svg>
