<svg xmlns="http://www.w3.org/2000/svg" width="357.72" height="319.458" viewBox="0 0 357.72 319.458">
  <path id="Icon_simple-redux" data-name="Icon simple-redux" d="M247.93,223.874c12.953-1.053,23-11.791,22.344-24.62-.686-12.829-11.85-23.132-25.46-23.132h-.909c-14.057.435-25.013,11.566-24.565,24.831a24.932,24.932,0,0,0,7.364,16.184c-15.622,28.606-39.069,49.633-74.59,67.305-23.895,11.763-49.131,16.2-73.7,13.04-20.541-2.723-36.61-11.37-46.448-25.238C17.242,251.2,15.9,228.506,28.169,205.8A101.287,101.287,0,0,1,59.457,171.5,133.423,133.423,0,0,1,53.2,149.859C-12.928,194.454-6.2,255.428,13.888,284.245c14.966,21.027,45.568,34.474,79.062,34.474A122.912,122.912,0,0,0,120.423,316c58.074-10.513,102.062-43.317,127.3-91.687l.209-.435Zm79.718-52.581c-34.6-38.278-85.532-59.3-143.606-59.3h-7.6c-3.771-7.776-12.476-12.619-22.315-12.619h-.671c-14.057,0-25.013,11.37-24.55,24.606.447,12.6,11.835,23.132,25.46,23.132h1.1c10.062-.421,18.767-6.316,22.329-14.724h8.273c34.418,0,67,9.461,96.711,27.961,22.762,14.093,39.084,32.593,48.236,54.686,8.02,18.079,7.587,35.751-.671,50.489-12.73,23.118-34.18,35.33-62.531,35.33-17.872,0-35.283-5.264-44.227-9.04-5.351,4.183-14.295,11.131-20.779,15.342,19.646,8.394,39.531,13.237,58.73,13.237,43.556,0,75.917-23.118,88.215-45.422,13.386-25.238,12.283-67.712-21.9-104.1ZM96.737,231.426c.432,12.619,11.821,23.132,25.46,23.132h.894c14.295-.421,25.236-11.552,24.565-24.817,0-12.619-11.612-23.118-25.236-23.118h-.909a10.166,10.166,0,0,0-3.354.407c-18.528-29.449-26.354-61-23.432-95.042C96.5,86.33,105.442,64.026,121.511,45.526c13.4-15.777,38.637-23.567,55.838-23.974,48.236-.856,68.345,55.739,69.895,78.24l22.329,6.3C264.431,37.118,218.893.931,175.337.931c-40.873,0-78.6,27.975-93.8,68.99-20.764,54.686-7.14,107.253,18.32,149.321-2.221,2.737-3.563,7.566-3.115,12.184Z" transform="translate(0 -0.932)"/>
</svg>
