<svg xmlns="http://www.w3.org/2000/svg" width="339.115" height="359.35" viewBox="0 0 339.115 359.35">
  <path id="Icon_awesome-js" data-name="Icon awesome-js" d="M0,2.25V361.6H339.115V2.25ZM184.545,282.511c0,34.972-19.378,50.935-47.612,50.935-25.509,0-40.27-13.957-47.839-30.882l25.963-16.6c5,9.385,9.538,17.326,20.513,17.326,10.446,0,17.107-4.331,17.107-21.256V167.246h31.868Zm75.392,50.935c-29.6,0-48.748-14.919-58.058-34.491l25.963-15.882c6.813,11.791,15.745,20.534,31.414,20.534,13.171,0,21.649-6.978,21.649-16.684,0-11.551-8.629-15.641-23.238-22.459l-7.948-3.61c-23.011-10.347-38.226-23.422-38.226-50.935,0-25.347,18.243-44.6,46.628-44.6,20.286,0,34.82,7.46,45.266,27.031L278.558,209.2c-5.45-10.347-11.354-14.438-20.513-14.438-9.31,0-15.215,6.257-15.215,14.438,0,10.107,5.9,14.2,19.605,20.534l7.948,3.61c27.1,12.272,42.314,24.866,42.314,53.1C312.7,316.761,290.14,333.445,259.937,333.445Z" transform="translate(0 -2.25)"/>
</svg>
