<svg xmlns="http://www.w3.org/2000/svg" width="382.39" height="299.257" viewBox="0 0 382.39 299.257">
  <path id="Icon_ionic-logo-sass" data-name="Icon ionic-logo-sass" d="M382.229,217.407c-1.247-11.561-6.9-20.528-15.531-27.559,2.134,1.734,3.94,3.2-.041-.035-5.369-4.362-2.524-2.05-.035-.027-21.285-17.259-49.051-13.423-72.246-3.835-9.3-17.254-9.7-30.421-4.344-49.256.694-2.38.22-3.7-1.96-4.764-5.292-2.576-12.914-1.213-18.24.394a4.611,4.611,0,0,0-3.585,3.725c-3.849,20.61-15.691,39.488-26.011,56.864-7.268-15.857-6.692-28.129-1.8-44.647.6-2.011.322-3.081-1.447-4.148-5.422-3.194-13.743-1.626-19.269.235-6.355,2.11-15.9,37.912-18.949,45.013-6.371,14.829-12.018,37.972-22.843,49.736-9.186-13.438,16.824-43.8,8.127-55.984-2.941-4.122-8.262-4.015-11.64-.524.81-6.468,1.231-10.72-.239-16.207-1.554-5.773-5.5-9.086-11.27-8.918-13.44.448-25.276,11.745-33.34,22.442C119.889,190.2,99.646,196.6,88.763,202.8c-18.7-18.539-59.167-38.212-60.22-69.782C27.4,97.445,64.629,73.3,89.483,58.863c32.324-18.792,82.125-42.175,118.853-21.625C218.082,42.692,222,54.387,219.321,65.59c-7,29.217-35.25,48.708-59.825,57.647-12.091,4.4-25.37,7.674-38.164,6.823-17.144-1.142-30.494-12.943-32.325-13.676-1.53-.331-1.41,1.922-1.006,3.115,17.787,53.078,107.859,14.182,131.414-13.068,11.344-13.11,18.233-25.815,21.174-45.819,3.447-23.45-11.676-38.123-23.156-44.172C159.239-14.226,78.789,25.936,34.787,66.879c-19.1,17.769-42.983,46-32.021,75.618,11.9,32.14,48.348,48.621,72.074,68.278-19.2,10.859-43.215,22.09-55.654,42.451-7.113,11.672-9.637,24.11-4.34,37.378,9.389,23.437,43.531,13.281,57.936,2.951A64.078,64.078,0,0,0,98.7,255.1c3.327-14.12,2.645-28.792-2.88-42.093l21.349-12.292c-5.749,19.618-8.288,44.211,3.645,61.938,4.781,7.089,17.19,7.375,22.269.264,6.584-9.3,10.952-20.961,15.313-31.631-.509,7.969-1.386,17,1.028,23.945,2.771,7.969,9.056,9.6,15.529,4.542,19.807-15.475,32.412-58.365,42.17-83.368,2.653,10.907,5.581,20.87,10.424,30.925,1.2,2.468,1.051,4.059-.594,6.117-7.233,9.075-24.516,24.212-26.191,36.471A5.5,5.5,0,0,0,205,256.189c11.631,2.642,24.525-2.152,33.969-9.418,9.85-7.585,13.03-17.927,10.639-30.193-3.418-17.659,8.21-37.39,19.27-51.885,2.031,10.974,5.091,21.535,10.563,31.121-9.765,9.762-24.333,23.6-22.241,39.906.738,5.836,5.329,9.608,10.84,8.277,11.788-2.826,21.97-8.6,29.4-18.828,6.739-9.229,4.326-19.3,1.386-29.445,17.829-5.794,35.866-6.952,53.647-.023,8.585,3.324,15.5,8.927,19.6,17.7,5.023,10.749,2.2,20.652-7.506,27.719-2.455,1.789-4.154,3.259-3.323,4.032s3.66,1.8,9.921-2.68A25.674,25.674,0,0,0,382.247,224,35.876,35.876,0,0,0,382.229,217.407ZM84.355,238.882c-1.014,14.175-7.2,25.669-17.308,34.954-5.689,5.235-12.773,9.5-19.807,10.28s-12.511-1.242-12.979-9.547C32.943,251.195,64.824,228.3,82.526,221.4a53.67,53.67,0,0,1,1.816,17.5Zm77-61.6c-2.915,18.966-11.076,53.005-24.134,66.6-1.76,1.822-3.443,1.716-4.339-.655-7.726-20.454,2.742-62.631,24.708-69.142C160.174,173.33,161.776,174.581,161.357,177.285ZM213.869,246.8q9.435-11.429,18.872-22.892C233.52,232.428,219.618,249.383,213.869,246.8Zm60.282-15.044c-1.754,1.082-5.692,2.138-5.846.71-1.107-10.274,8.825-21.147,14.987-26.242A21.769,21.769,0,0,1,274.151,231.756Z" transform="translate(0 -5.625)"/>
</svg>
