<svg id="Group_2" data-name="Group 2" xmlns="http://www.w3.org/2000/svg" width="1136.626" height="835.426" viewBox="0 0 1136.626 835.426">
  <path id="Path_31" data-name="Path 31" d="M840.828,654.791,834,679h28c-4-9.564-5.022-18.646-1.556-27Z" transform="translate(-31.687 -32.287)" fill="#ffb8b8"/>
  <path id="Path_32" data-name="Path 32" d="M1168.313,866.565c0,.379-.011.769-.034,1.148H32.261c-.023-.379-.034-.769-.034-1.148,0-57.6,254.323-104.279,568.043-104.279S1168.313,808.969,1168.313,866.565Z" transform="translate(-31.687 -32.287)" fill="#3f3d56"/>
  <circle id="Ellipse_29" data-name="Ellipse 29" cx="63.116" cy="63.116" r="63.116" transform="translate(887.605 655.258)" fill="#d0cde1"/>
  <ellipse id="Ellipse_30" data-name="Ellipse 30" cx="42.46" cy="17.213" rx="42.46" ry="17.213" transform="translate(911.704 655.258)" fill="#6c63ff"/>
  <circle id="Ellipse_31" data-name="Ellipse 31" cx="40.165" cy="40.165" r="40.165" transform="translate(916.294 593.29)" fill="#d0cde1"/>
  <circle id="Ellipse_32" data-name="Ellipse 32" cx="6.144" cy="6.144" r="6.144" transform="translate(938.098 613.54)" fill="#575a89"/>
  <circle id="Ellipse_33" data-name="Ellipse 33" cx="6.144" cy="6.144" r="6.144" transform="translate(959.09 613.54)" fill="#575a89"/>
  <path id="Path_33" data-name="Path 33" d="M984.7,660l-1.677,20.121a.75.75,0,0,0,1.467.272L990.441,660Z" transform="translate(-31.687 -32.287)" fill="#ff6584"/>
  <path id="Path_34" data-name="Path 34" d="M916.882,801.169l-7.3,7.3-40.335-47.638.978-6.326Z" fill="#575a89"/>
  <path id="Path_35" data-name="Path 35" d="M885.31,778.047v4.591l-36.722-2.295-3.443-2.3Z" fill="#575a89"/>
  <ellipse id="Ellipse_34" data-name="Ellipse 34" cx="10.328" cy="11.476" rx="10.328" ry="11.476" transform="translate(903.671 688.538)" fill="#d0cde1"/>
  <path id="Path_36" data-name="Path 36" d="M1000.626,699.036l7.3,7.3,40.335-47.638-.977-6.326Z" fill="#575a89"/>
  <path id="Path_37" data-name="Path 37" d="M1021.87,681.652v4.59l36.722-2.295,3.443-2.3Z" fill="#575a89"/>
  <ellipse id="Ellipse_35" data-name="Ellipse 35" cx="10.328" cy="11.476" rx="10.328" ry="11.476" transform="translate(993.181 688.538)" fill="#d0cde1"/>
  <circle id="Ellipse_36" data-name="Ellipse 36" cx="4.59" cy="4.59" r="4.59" transform="translate(949.574 700.013)" fill="#575a89"/>
  <circle id="Ellipse_37" data-name="Ellipse 37" cx="4.59" cy="4.59" r="4.59" transform="translate(949.574 714.932)" fill="#575a89"/>
  <circle id="Ellipse_38" data-name="Ellipse 38" cx="4.59" cy="4.59" r="4.59" transform="translate(949.574 729.85)" fill="#575a89"/>
  <path id="Path_38" data-name="Path 38" d="M787.462,778.193a24.08,24.08,0,0,0-42.908-16.111,24.133,24.133,0,0,0-10.472-8.862,24.1,24.1,0,0,0-41.136-22.349,56.158,56.158,0,0,0-20.029-12.777,24.086,24.086,0,0,0-46.206-12.574,24.067,24.067,0,0,0-36.1,28.671,24.117,24.117,0,0,0-7.718,4.635,24.077,24.077,0,0,0-29.724,11.562,24.12,24.12,0,0,0-7.788-5.741c.071-.59.145-1.179.173-1.781a24.1,24.1,0,1,0-47.9,2.461,23.856,23.856,0,0,0-17.46,25.471c-27.043.794-53.125,2.061-78.049,3.774A56.238,56.238,0,0,0,298.62,763.23a24.088,24.088,0,0,0-37.027,27.831q-1.636.294-3.259.592c.038-.4.1-.793.116-1.2a24.1,24.1,0,1,0-48.146-2.23c-.012.25.007.493,0,.742a14.906,14.906,0,0,0-20.181,13.258C190.038,804.114,787.419,779.13,787.462,778.193Z" transform="translate(-31.687 -32.287)" fill="#d0cde1"/>
  <path id="Path_39" data-name="Path 39" d="M40.225,418.769c.033-.1.068-.211.1-.316-.014.046-.032.09-.046.136Z" transform="translate(-31.687 -32.287)" fill="#2f2e41"/>
  <path id="Path_40" data-name="Path 40" d="M589.056,731.618l85-126.4-84.824,140,.177,14.223q-9.308.071-18.435-.31L575.188,576.3l-.115-1.41.156-.273.4-17.276L482.549,422.2l92.973,122.215.33,3.652,3.184-138.135-80.4-140.114,80.627,115.848-.842-286.18,0-.953.027.937,5.337,225.548L657.063,233.4,584.029,344.445,585.628,468l67.426-120.588L585.876,486.168l.89,68.7,98.056-167.978L587.065,578.841Z" transform="translate(-31.687 -32.287)" fill="#3f3d56"/>
  <circle id="Ellipse_39" data-name="Ellipse 39" cx="9.181" cy="9.181" r="9.181" transform="translate(529.566 330.498)" fill="#d0cde1"/>
  <circle id="Ellipse_40" data-name="Ellipse 40" cx="9.181" cy="9.181" r="9.181" transform="translate(589.239 470.501)" fill="#d0cde1"/>
  <circle id="Ellipse_41" data-name="Ellipse 41" cx="9.181" cy="9.181" r="9.181" transform="translate(511.205 501.485)" fill="#d0cde1"/>
  <circle id="Ellipse_42" data-name="Ellipse 42" cx="9.181" cy="9.181" r="9.181" transform="translate(481.368 358.04)" fill="#d0cde1"/>
  <path id="Path_41" data-name="Path 41" d="M584.2,381.146a9.172,9.172,0,0,0-4.675-7.994,9.177,9.177,0,1,0-13.6,6.807,8.989,8.989,0,0,0,1.8,6.75,9.184,9.184,0,1,0,15.729-1.947A9.146,9.146,0,0,0,584.2,381.146Z" transform="translate(-31.687 -32.287)" fill="#d0cde1"/>
  <path id="Path_42" data-name="Path 42" d="M601.417,288.194a9.181,9.181,0,0,0-9.181,9.18,9.176,9.176,0,0,0-8.891,6.929,9.179,9.179,0,1,0,9.749,11.389,9.179,9.179,0,0,0,8.323-9.137,9.18,9.18,0,0,0,0-18.361Z" transform="translate(-31.687 -32.287)" fill="#d0cde1"/>
  <circle id="Ellipse_43" data-name="Ellipse 43" cx="6.885" cy="6.885" r="6.885" transform="translate(368.907 397.057)" fill="#d0cde1"/>
  <circle id="Ellipse_44" data-name="Ellipse 44" cx="6.885" cy="6.885" r="6.885" transform="translate(443.498 479.681)" fill="#d0cde1"/>
  <circle id="Ellipse_45" data-name="Ellipse 45" cx="9.181" cy="9.181" r="9.181" transform="translate(776.292 159.511)" fill="#d0cde1"/>
  <circle id="Ellipse_46" data-name="Ellipse 46" cx="6.885" cy="6.885" r="6.885" transform="translate(848.588 56.231)" fill="#d0cde1"/>
  <circle id="Ellipse_47" data-name="Ellipse 47" cx="6.885" cy="6.885" r="6.885" transform="translate(923.18 138.855)" fill="#d0cde1"/>
  <circle id="Ellipse_48" data-name="Ellipse 48" cx="9.181" cy="9.181" r="9.181" transform="translate(1013.837 325.908)" fill="#d0cde1"/>
  <circle id="Ellipse_49" data-name="Ellipse 49" cx="6.885" cy="6.885" r="6.885" transform="translate(893.114 235.365)" fill="#d0cde1"/>
  <circle id="Ellipse_50" data-name="Ellipse 50" cx="9.181" cy="9.181" r="9.181" transform="translate(697.11 477.386)" fill="#d0cde1"/>
  <circle id="Ellipse_51" data-name="Ellipse 51" cx="6.885" cy="6.885" r="6.885" transform="translate(808.423 490.009)" fill="#d0cde1"/>
  <circle id="Ellipse_52" data-name="Ellipse 52" cx="9.181" cy="9.181" r="9.181" transform="translate(130.214 185.905)" fill="#d0cde1"/>
  <circle id="Ellipse_53" data-name="Ellipse 53" cx="6.885" cy="6.885" r="6.885" transform="translate(123.329 117.051)" fill="#d0cde1"/>
  <circle id="Ellipse_54" data-name="Ellipse 54" cx="6.885" cy="6.885" r="6.885" transform="translate(116.443 619.684)" fill="#d0cde1"/>
  <circle id="Ellipse_55" data-name="Ellipse 55" cx="6.885" cy="6.885" r="6.885" transform="translate(384.973 641.487)" fill="#d0cde1"/>
  <circle id="Ellipse_56" data-name="Ellipse 56" cx="9.181" cy="9.181" r="9.181" transform="translate(936.95 506.075)" fill="#d0cde1"/>
  <circle id="Ellipse_57" data-name="Ellipse 57" cx="6.885" cy="6.885" r="6.885" transform="translate(1071.215 568.043)" fill="#d0cde1"/>
  <circle id="Ellipse_58" data-name="Ellipse 58" cx="6.885" cy="6.885" r="6.885" transform="translate(312.676 265.087)" fill="#d0cde1"/>
  <circle id="Ellipse_59" data-name="Ellipse 59" cx="9.181" cy="9.181" r="9.181" transform="translate(687.929 607.061)" fill="#d0cde1"/>
  <circle id="Ellipse_60" data-name="Ellipse 60" cx="6.885" cy="6.885" r="6.885" transform="translate(368.907 0)" fill="#d0cde1"/>
  <circle id="Ellipse_61" data-name="Ellipse 61" cx="6.885" cy="6.885" r="6.885" transform="translate(443.498 82.624)" fill="#d0cde1"/>
  <circle id="Ellipse_62" data-name="Ellipse 62" cx="6.885" cy="6.885" r="6.885" transform="translate(427.433 172.134)" fill="#d0cde1"/>
  <circle id="Ellipse_63" data-name="Ellipse 63" cx="9.181" cy="9.181" r="9.181" transform="translate(635.141 58.526)" fill="#d0cde1"/>
  <circle id="Ellipse_64" data-name="Ellipse 64" cx="6.885" cy="6.885" r="6.885" transform="translate(709.045 267.202)" fill="#d0cde1"/>
  <circle id="Ellipse_65" data-name="Ellipse 65" cx="6.885" cy="6.885" r="6.885" transform="translate(876.13 390.171)" fill="#d0cde1"/>
  <circle id="Ellipse_66" data-name="Ellipse 66" cx="6.885" cy="6.885" r="6.885" transform="translate(173.821 386.729)" fill="#d0cde1"/>
  <circle id="Ellipse_67" data-name="Ellipse 67" cx="6.885" cy="6.885" r="6.885" transform="translate(70.541 518.698)" fill="#d0cde1"/>
  <circle id="Ellipse_68" data-name="Ellipse 68" cx="18.361" cy="18.361" r="18.361" transform="translate(318.414 405.09)" fill="#d0cde1"/>
  <path id="Path_43" data-name="Path 43" d="M879,644.93,889.327,634.6l5.737,5.738-9.18,14.918Z" fill="#ffb8b8"/>
  <path id="Path_44" data-name="Path 44" d="M915.276,666.889l6.885-4.59s17.213-22.951,24.1-11.476-12.623,22.951-12.623,22.951L927.9,680.66Z" transform="translate(-31.687 -32.287)" fill="#ff6584"/>
  <path id="Path_45" data-name="Path 45" d="M915.276,666.889l6.885-4.59s17.213-22.951,24.1-11.476-12.623,22.951-12.623,22.951L927.9,680.66Z" transform="translate(-31.687 -32.287)" opacity="0.15"/>
  <path id="Path_46" data-name="Path 46" d="M821.62,656.406h36.722l21.8-14.919L892.769,658.7l-29.836,22.951-30.985,5.738Z" fill="#6c63ff"/>
  <path id="Path_47" data-name="Path 47" d="M821.62,656.406h36.722l21.8-14.919L892.769,658.7l-29.836,22.951-30.985,5.738Z" opacity="0.15"/>
  <path id="Path_48" data-name="Path 48" d="M868.226,753.53s33.279,36.722,27.542,45.9-18.361,9.18-20.656,8.033-35.574-19.509-35.574-19.509l4.59-14.918s-6.885-16.066,0-17.213S868.226,753.53,868.226,753.53Z" transform="translate(-31.687 -32.287)" fill="#2f2e41"/>
  <path id="Path_49" data-name="Path 49" d="M846.422,773.039s-21.8-17.213-26.394-13.771-19.509,25.246-17.213,35.574,0,13.771,6.885,12.623,8.033-12.623,8.033-12.623l24.1-9.18Z" transform="translate(-31.687 -32.287)" fill="#2f2e41"/>
  <rect id="Rectangle_17" data-name="Rectangle 17" width="1.148" height="29.925" transform="translate(821.315 744.683) rotate(-57.529)" opacity="0.15"/>
  <circle id="Ellipse_69" data-name="Ellipse 69" cx="17.213" cy="17.213" r="17.213" transform="translate(804.407 595.011)" fill="#ffb8b8"/>
  <path id="Path_50" data-name="Path 50" d="M832.651,664.02s-4.59,11.476-4.59,39.017-16.066,40.165-3.443,53.935S887,762,887,762s-.537.425-.413-.437c1.148-8.033-11.476-91.8-16.066-92.953S832.651,664.02,832.651,664.02Z" transform="translate(-31.687 -32.287)" fill="#6c63ff"/>
  <path id="Path_51" data-name="Path 51" d="M879,625.995l10.329-10.328,5.737,5.738-9.18,14.918Z" fill="#ffb8b8"/>
  <path id="Path_52" data-name="Path 52" d="M820.529,643.156c-3.8.557-8,.982-10.688,2.142-3.53,1.522-3.325,3.806-2.366,5.8s2.458,4.071.858,6c-.93,1.124-2.833,2.089-4.318,3.123s-2.579,2.251-1.7,3.381c.917,1.181,3.726,1.98,5.7,2.957,4.263,2.112,4.323,5.3.141,7.435,3.6-2.166,10.468-3.132,16.768-4.054s13.069-2.147,15.711-4.5c2.694-2.4.189-5.2,1.587-7.757,1.2-2.186,5.1-3.986,8.218-5.88s5.576-4.227,3.524-6.319c-1.514-1.544-5.389-2.891-4.652-4.515.456-1,2.589-1.753,4.12-2.591s2.386-2.09.456-2.8c-7.008,1.264-14.143,2.459-21.054,3.8C828.568,640.205,826.044,643.156,820.529,643.156Z" transform="translate(-31.687 -32.287)" fill="#2f2e41"/>
  <path id="Path_53" data-name="Path 53" d="M821.62,637.471h36.722l21.8-14.918,12.623,17.213-29.836,22.951-30.985,5.738Z" fill="#6c63ff"/>
  <path id="Path_54" data-name="Path 54" d="M946.138,663.447s32.132-16.066,32.132-21.8-12.623-22.951-35.574-22.951c0,0-5.738-10.328-12.623-2.3s3.443,13.771,3.443,13.771-12.623,20.656,5.738,33.279Z" transform="translate(-31.687 -32.287)" fill="#6c63ff"/>
  <circle id="Ellipse_70" data-name="Ellipse 70" cx="18.361" cy="18.361" r="18.361" transform="translate(614.485 406.237)" fill="#ff6584"/>
  <path id="Path_55" data-name="Path 55" d="M620.705,424.859l-5.255-7.017.919-.688,4.52,6.035,7.941-6.8,8,6.859,6.915-6.915,7.291,7.291-.811.811-6.48-6.48-6.855,6.855-8.063-6.911Z" fill="#575a89"/>
  <path id="Path_56" data-name="Path 56" d="M619.569,433.933l-5.207-6.956.8-.6,4.566,6.1,7.953-6.816,8.007,6.863,6.911-6.912,7.24,7.239-.708.707-6.532-6.532-6.858,6.86-8.06-6.909Z" fill="#575a89"/>
  <rect id="Rectangle_18" data-name="Rectangle 18" width="1.148" height="13.771" transform="translate(631.699 393.04)" fill="#575a89"/>
  <circle id="Ellipse_71" data-name="Ellipse 71" cx="18.361" cy="18.361" r="18.361" transform="translate(580.058 255.906)" fill="#ff6584"/>
  <path id="Path_57" data-name="Path 57" d="M586.278,274.529l-5.255-7.018.919-.688,4.52,6.036,7.941-6.806,8,6.86L609.321,266l7.291,7.291-.811.811-6.48-6.479-6.855,6.855-8.063-6.911Z" fill="#575a89"/>
  <path id="Path_58" data-name="Path 58" d="M585.142,283.6l-5.207-6.954.8-.6,4.566,6.1,7.954-6.817,8.006,6.863,6.911-6.911,7.24,7.239-.707.707-6.533-6.532-6.858,6.86-8.059-6.909Z" fill="#575a89"/>
  <rect id="Rectangle_19" data-name="Rectangle 19" width="1.148" height="13.771" transform="translate(597.272 242.709)" fill="#575a89"/>
  <circle id="Ellipse_72" data-name="Ellipse 72" cx="18.361" cy="18.361" r="18.361" transform="translate(438.908 411.975)" fill="#ff6584"/>
  <path id="Path_59" data-name="Path 59" d="M445.128,430.6l-5.255-7.018.919-.688,4.52,6.036,7.941-6.806,8,6.86,6.916-6.916,7.291,7.292-.811.811-6.48-6.48-6.855,6.855-8.063-6.911Z" fill="#575a89"/>
  <path id="Path_60" data-name="Path 60" d="M443.992,439.67l-5.207-6.954.8-.6,4.566,6.1,7.953-6.816,8.007,6.863,6.912-6.912,7.238,7.239-.707.707-6.531-6.531-6.859,6.858-8.06-6.907Z" fill="#575a89"/>
  <rect id="Rectangle_20" data-name="Rectangle 20" width="1.148" height="13.771" transform="translate(456.122 398.778)" fill="#575a89"/>
  <path id="Path_61" data-name="Path 61" d="M563.405,93.16,547.768,81.426,531.776,92.672l6.328-18.5L522.466,62.439l19.548.3,6.328-18.5L554.1,62.928l19.548.3L557.652,74.476Z" fill="#6c63ff"/>
  <path id="Path_62" data-name="Path 62" d="M788.58,766.752a24.08,24.08,0,0,0-42.908-16.111,24.133,24.133,0,0,0-10.472-8.862,24.1,24.1,0,0,0-41.136-22.349,56.158,56.158,0,0,0-20.029-12.777,24.086,24.086,0,0,0-46.206-12.574,24.067,24.067,0,0,0-36.1,28.671,24.118,24.118,0,0,0-7.718,4.635,24.077,24.077,0,0,0-29.724,11.562,24.12,24.12,0,0,0-7.788-5.741c.071-.59.145-1.179.173-1.782a24.1,24.1,0,1,0-47.9,2.461,23.856,23.856,0,0,0-17.46,25.471c-27.043.794-53.125,2.061-78.049,3.774A56.238,56.238,0,0,0,299.738,751.79a24.088,24.088,0,0,0-37.027,27.831q-1.636.294-3.259.592c.038-.4.1-.793.116-1.2a24.1,24.1,0,1,0-48.146-2.23c-.012.25.007.493,0,.742a14.905,14.905,0,0,0-20.181,13.258C191.156,792.674,788.537,767.689,788.58,766.752Z" transform="translate(-31.687 -32.287)" fill="#d0cde1"/>
  <path id="Path_63" data-name="Path 63" d="M203.706,867.437a26.061,26.061,0,0,1,2.708.275h-7.585a22.864,22.864,0,0,1,4.877-.275Z" transform="translate(-31.687 -32.287)" fill="#d0cde1"/>
  <path id="Path_64" data-name="Path 64" d="M313.23,867.713H219.887a56.211,56.211,0,0,1,93.343,0Z" transform="translate(-31.687 -32.287)" fill="#d0cde1"/>
  <path id="Path_65" data-name="Path 65" d="M125.03,867.713H31.687a56.211,56.211,0,0,1,93.343,0Z" transform="translate(-31.687 -32.287)" fill="#d0cde1"/>
  <path id="Path_66" data-name="Path 66" d="M180.113,867.713H86.77a56.211,56.211,0,0,1,93.343,0Z" transform="translate(-31.687 -32.287)" fill="#d0cde1"/>
  <path id="Path_67" data-name="Path 67" d="M439.462,814.925H346.119a56.211,56.211,0,0,1,93.343,0Z" transform="translate(-31.687 -32.287)" fill="#d0cde1"/>
  <path id="Path_68" data-name="Path 68" d="M813.567,841.319H720.224a56.211,56.211,0,0,1,93.343,0Z" transform="translate(-31.687 -32.287)" fill="#d0cde1"/>
  <path id="Path_69" data-name="Path 69" d="M652.576,862.273a24.436,24.436,0,0,1,7.758,5.439H400.651a24.179,24.179,0,0,1,15.492-13.335,23.535,23.535,0,0,1-.241-4.694,24.1,24.1,0,1,1,48.14,2.238c-.023.6-.092,1.182-.172,1.779a24.029,24.029,0,0,1,7.792,5.738,24.085,24.085,0,0,1,29.722-11.556,24.03,24.03,0,0,1,7.723-4.636,23.808,23.808,0,0,1-1.687-10,24.072,24.072,0,0,1,37.789-18.682,24.088,24.088,0,0,1,46.476,9.949,24.867,24.867,0,0,1-.275,2.628,56.209,56.209,0,0,1,20.025,12.772,24.09,24.09,0,0,1,41.14,22.355Z" transform="translate(-31.687 -32.287)" fill="#d0cde1"/>
  <path id="Path_70" data-name="Path 70" d="M909.664,867.713h-44.3a24.091,24.091,0,0,1,44.3,0Z" transform="translate(-31.687 -32.287)" fill="#d0cde1"/>
  <path id="Path_71" data-name="Path 71" d="M1095.844,867.713H955.991a23.246,23.246,0,0,1-1.021-8.067,24.072,24.072,0,0,1,37.789-18.682,24.088,24.088,0,0,1,46.476,9.949,24.867,24.867,0,0,1-.276,2.628,56.211,56.211,0,0,1,20.025,12.773,24.1,24.1,0,0,1,36.86,1.4Z" transform="translate(-31.687 -32.287)" fill="#d0cde1"/>
  <path id="Path_72" data-name="Path 72" d="M697.422,867.713h-31.03a24.023,24.023,0,0,1,31.03,0Z" transform="translate(-31.687 -32.287)" fill="#d0cde1"/>
  <circle id="Ellipse_73" data-name="Ellipse 73" cx="20.446" cy="20.446" r="20.446" transform="translate(235.623 461.683)" fill="#a0616a"/>
  <path id="Path_73" data-name="Path 73" d="M292.567,488.346c7.285.456,14.044,3.835,20.361,7.491a2.637,2.637,0,0,0-3.183.628c-.843.817-1.373,1.908-2.184,2.757-1.508,1.577-3.769,2.123-5.9,2.6l-9.926,2.208-9.206,2.048a18.718,18.718,0,0,1-7.05.648c-2.343-.386-4.663-1.9-5.275-4.193-.851-3.188,5.487-7.932,7.811-9.852A21.1,21.1,0,0,1,292.567,488.346Z" transform="translate(-31.687 -32.287)" fill="#2f2e41"/>
  <path id="Path_74" data-name="Path 74" d="M273.864,505.075c4.292-6.026,10.99-9.944,17.708-13.324-1.13.447-1.418,1.912-1.114,3.1s1.025,2.265,1.373,3.445c.648,2.194-.052,4.454-.749,6.56l-3.246,9.815-3.011,9.1a17.855,17.855,0,0,1-3.152,6.449,6.552,6.552,0,0,1-6.658,2.177c-3.382-1.071-4.374-9.226-4.9-12.318a20.479,20.479,0,0,1,3.751-15.009Z" transform="translate(-31.687 -32.287)" fill="#2f2e41"/>
  <path id="Path_75" data-name="Path 75" d="M376.757,498.781s1.2-26.46,7.216-25.257,1.2,27.662,1.2,27.662Z" transform="translate(-31.687 -32.287)" fill="#a0616a"/>
  <path id="Path_76" data-name="Path 76" d="M375.557,544.486l-27.022,19.571-7.86,5.688-20.443-28.869,12.76-5.03,26.93-10.607,15.636-31.273,13.224,3.61C391.193,503.59,375.557,544.486,375.557,544.486Z" transform="translate(-31.687 -32.287)" fill="#575a89"/>
  <path id="Path_77" data-name="Path 77" d="M333.46,492.768s-3.608-31.271,3.608-28.865,6.014,32.473,6.014,32.473Z" transform="translate(-31.687 -32.287)" fill="#a0616a"/>
  <path id="Path_78" data-name="Path 78" d="M247,740.808l-6.94,18.149,19.333,5.719-.368-24.051Z" fill="#575a89"/>
  <path id="Path_79" data-name="Path 79" d="M304.028,616.042,284.8,695.725l-18.469,50.8-24.052.368,21.856-65.289,8.518-72.3Z" fill="#2f2e41"/>
  <path id="Path_80" data-name="Path 80" d="M269.048,789.267s-7.322,15.586-2.385,17.72,18.348,5,18.348,5l1.841-1.548s30.984,6.945,36.172-3.7-19.163-15.314-19.163-15.314l-11.13-9.5-13.368,6.527Z" transform="translate(-31.687 -32.287)" fill="#2f2e41"/>
  <path id="Path_81" data-name="Path 81" d="M221.686,737.587l-6.939,18.149,19.333,5.719-.368-24.052Z" fill="#575a89"/>
  <path id="Path_82" data-name="Path 82" d="M245.978,611.51l-7.1,70.483-21.966,58.073,20.554,6.9L269,685.141l14.548-71.191Z" fill="#2f2e41"/>
  <path id="Path_83" data-name="Path 83" d="M242.438,786.716s-11.475,12.839-7.355,16.3,16.15,10.04,16.15,10.04l2.207-.957s27.7,15.52,35.719,6.8-13.981-20.157-13.981-20.157l-7.947-12.285-14.677,2.43Z" transform="translate(-31.687 -32.287)" fill="#2f2e41"/>
  <path id="Path_84" data-name="Path 84" d="M348.534,564.056l-7.86,5.688-20.443-28.869,5.688-1.011c.316.52,5.243.39,5.568.928C337.454,550.564,346.057,558.823,348.534,564.056Z" transform="translate(-31.687 -32.287)" opacity="0.15"/>
  <path id="Path_85" data-name="Path 85" d="M361.182,660.5c-1.392-.9-1.717-10.313-3.712-11.136-1.013-.417-3.491,7.727-4.639,7.33-29.82-10.318-96.481,11.8-107.645-12.9-7.506-16.605,40.163-48.8,40.163-60.828a35.34,35.34,0,0,0-1.652-9.011c-2.274-7.962-6.505-17.984-9.92-25.547-2.923-6.477-5.262-11.145-5.262-11.145s35.068-10.421,46.306-14.448c1.429-.51,2.468-.919,3.007-1.188,2.153-1.076,7.684,6.533,13.353,15.8,6.978,11.423,14.179,25.38,15.506,28.7C349.091,572.148,381.626,673.733,361.182,660.5Z" transform="translate(-31.687 -32.287)" fill="#575a89"/>
  <path id="Path_86" data-name="Path 86" d="M326.848,535.224c-13.019,15.673-27.032,34.409-39.1,37.954a20.03,20.03,0,0,1-4.055.78c-2.274-7.962-6.505-17.984-9.92-25.547a16.4,16.4,0,0,1,4.909-3.684L311.3,528.673l3.517-5.855c1.429-.51,2.468-.919,3.007-1.188C319.981,520.553,321.178,525.954,326.848,535.224Z" transform="translate(-31.687 -32.287)" opacity="0.15"/>
  <path id="Path_87" data-name="Path 87" d="M278.685,540.088c-8.909,4.386-12.155,15.783-6.383,23.864,2.995,4.193,7.787,6.843,15.454,4.588C308.2,562.525,346.69,519.228,346.69,506V493.971l-14.433-4.811L311.3,524.031Z" transform="translate(-31.687 -32.287)" fill="#575a89"/>
  <ellipse id="Ellipse_74" data-name="Ellipse 74" cx="1.856" cy="3.712" rx="1.856" ry="3.712" transform="matrix(0.814, -0.581, 0.581, 0.814, 295.206, 508.416)" fill="#2f2e41"/>
  <ellipse id="Ellipse_75" data-name="Ellipse 75" cx="1.856" cy="3.712" rx="1.856" ry="3.712" transform="matrix(0.814, -0.581, 0.581, 0.814, 300.774, 518.624)" fill="#2f2e41"/>
  <ellipse id="Ellipse_76" data-name="Ellipse 76" cx="1.856" cy="3.712" rx="1.856" ry="3.712" transform="matrix(0.814, -0.581, 0.581, 0.814, 305.413, 529.76)" fill="#2f2e41"/>
  <ellipse id="Ellipse_77" data-name="Ellipse 77" cx="1.856" cy="3.712" rx="1.856" ry="3.712" transform="translate(308.909 539.923) rotate(-18.867)" fill="#2f2e41"/>
  <ellipse id="Ellipse_78" data-name="Ellipse 78" cx="1.856" cy="3.712" rx="1.856" ry="3.712" transform="translate(312.621 551.059) rotate(-18.867)" fill="#2f2e41"/>
  <ellipse id="Ellipse_79" data-name="Ellipse 79" cx="1.856" cy="3.712" rx="1.856" ry="3.712" transform="translate(316.333 561.267) rotate(-18.867)" fill="#2f2e41"/>
  <ellipse id="Ellipse_80" data-name="Ellipse 80" cx="1.856" cy="3.712" rx="1.856" ry="3.712" transform="translate(318.189 572.402) rotate(-18.867)" fill="#2f2e41"/>
  <ellipse id="Ellipse_81" data-name="Ellipse 81" cx="1.856" cy="3.712" rx="1.856" ry="3.712" transform="translate(320.045 583.538) rotate(-18.867)" fill="#2f2e41"/>
  <ellipse id="Ellipse_82" data-name="Ellipse 82" cx="1.856" cy="3.712" rx="1.856" ry="3.712" transform="translate(321.901 595.601) rotate(-18.867)" fill="#2f2e41"/>
  <ellipse id="Ellipse_83" data-name="Ellipse 83" cx="1.856" cy="3.712" rx="1.856" ry="3.712" transform="translate(322.829 607.665) rotate(-18.867)" fill="#2f2e41"/>
  <path id="Path_88" data-name="Path 88" d="M277.019,526.762s27.472-32.026,24.86-38.238-24.118-19.1-48.966-8.649c0,0-10.915-8.569-14.712,3.263s10,13.342,10,13.342-4.261,28.112,21.366,33.418Z" transform="translate(-31.687 -32.287)" fill="#6c63ff"/>
  <circle id="Ellipse_84" data-name="Ellipse 84" cx="18.361" cy="18.361" r="18.361" transform="translate(671.863 729.85)" fill="#ff6584"/>
  <path id="Path_89" data-name="Path 89" d="M678.083,748.472l-5.255-7.018.919-.688,4.52,6.036L686.208,740l8,6.86,6.915-6.916,7.291,7.291-.811.812-6.48-6.48-6.855,6.855-8.063-6.911Z" fill="#575a89"/>
  <path id="Path_90" data-name="Path 90" d="M676.947,757.545l-5.207-6.955.8-.6,4.566,6.1,7.953-6.816,8.007,6.863,6.912-6.912,7.238,7.239-.707.707-6.531-6.531L693.12,757.5l-8.06-6.907Z" fill="#575a89"/>
  <rect id="Rectangle_21" data-name="Rectangle 21" width="1.148" height="13.771" transform="translate(689.077 716.653)" fill="#575a89"/>
  <circle id="Ellipse_85" data-name="Ellipse 85" cx="18.361" cy="18.361" r="18.361" transform="translate(610.447 729.204)" fill="#6c63ff"/>
  <path id="Path_91" data-name="Path 91" d="M617.968,753.039l-7.769-4.063.532-1.017,6.682,3.495,4.227-9.566,10.18,2.735,3.254-9.223,9.724,3.431-.382,1.082-8.642-3.049-3.226,9.142-10.256-2.756Z" fill="#575a89"/>
  <path id="Path_92" data-name="Path 92" d="M620.4,760.74l-7.226-3.084.392-.92,6.387,2.727,4.673-8.676,9.748,1.818,3.694-8.289,9.152,2.428-.255.967-8.331-2.209-3.668,8.23L625.16,751.9Z" fill="#575a89"/>
  <rect id="Rectangle_22" data-name="Rectangle 22" width="1.148" height="13.771" transform="matrix(0.902, -0.431, 0.431, 0.902, 614.158, 719.592)" fill="#575a89"/>
  <circle id="Ellipse_86" data-name="Ellipse 86" cx="18.361" cy="18.361" r="18.361" transform="translate(445.51 718.863)" fill="#6c63ff"/>
  <path id="Path_93" data-name="Path 93" d="M452.335,733.43l-2.62-8.366,1.1-.343,2.254,7.2,9.753-3.775,5.264,9.132,8.822-4.22,4.45,9.3-1.036.495-3.954-8.267-8.745,4.183-5.3-9.2Z" fill="#575a89"/>
  <path id="Path_94" data-name="Path 94" d="M476.247,751.094l-3.986-8.333-8.751,4.184-5.3-9.2-9.965,3.857-2.6-8.291.954-.3,2.276,7.272,9.769-3.781,5.266,9.136,8.818-4.217,4.417,9.235Z" fill="#575a89"/>
  <rect id="Rectangle_23" data-name="Rectangle 23" width="13.771" height="1.148" transform="translate(468.703 720.067) rotate(-70.562)" fill="#575a89"/>
  <ellipse id="Ellipse_87" data-name="Ellipse 87" cx="1.707" cy="5.738" rx="1.707" ry="5.738" transform="translate(848.853 691.085) rotate(-9.004)" fill="#575a89"/>
  <ellipse id="Ellipse_88" data-name="Ellipse 88" cx="1.707" cy="5.738" rx="1.707" ry="5.738" transform="translate(846.558 675.019) rotate(-9.004)" fill="#575a89"/>
  <ellipse id="Ellipse_89" data-name="Ellipse 89" cx="1.707" cy="5.738" rx="1.707" ry="5.738" transform="translate(851.148 706.003) rotate(-9.004)" fill="#575a89"/>
  <ellipse id="Ellipse_90" data-name="Ellipse 90" cx="1.707" cy="5.738" rx="1.707" ry="5.738" transform="translate(852.651 719.618) rotate(-5.343)" fill="#575a89"/>
  <ellipse id="Ellipse_91" data-name="Ellipse 91" cx="5.738" cy="1.707" rx="5.738" ry="1.707" transform="translate(874.866 637.364) rotate(-45)" fill="#575a89"/>
  <path id="Path_95" data-name="Path 95" d="M869.723,637.586c-2.426-.275-4.5,1.617-6.2,3.368a37.555,37.555,0,0,1-4.65,4.274,19.1,19.1,0,0,1-17.472,2.485c.144.052,5.551-7.109,6.147-7.768a75.266,75.266,0,0,1,7.251-7.006c1.924-1.625,4.572-4.408,7.326-3.2C865.022,631.006,867.664,635.254,869.723,637.586Z" transform="translate(-31.687 -32.287)" fill="#2f2e41"/>
  <path id="Path_96" data-name="Path 96" d="M836.094,652.545s32.132-16.066,32.132-21.8S855.6,607.79,832.651,607.79c0,0-5.738-10.328-12.623-2.3s3.443,13.771,3.443,13.771-12.623,20.656,5.738,33.279Z" transform="translate(-31.687 -32.287)" fill="#575a89"/>
  <path id="Path_97" data-name="Path 97" d="M875.936,636.4c-2.426-.275-4.5,1.617-6.2,3.368a37.545,37.545,0,0,1-4.65,4.274,19.1,19.1,0,0,1-17.472,2.485c.143.052,5.551-7.109,6.147-7.768a75.272,75.272,0,0,1,7.251-7.006c1.924-1.625,4.572-4.408,7.326-3.2C871.236,629.817,873.877,634.065,875.936,636.4Z" transform="translate(-31.687 -32.287)" fill="#575a89"/>
  <path id="Path_98" data-name="Path 98" d="M946.26,631.889c-3.654-6.09-10.217-2.484-15.572,2.242-.261-2.941-1.153-5.111-2.215-5.111-1.268,0-2.3,3.083-2.3,6.885a19.44,19.44,0,0,0,.16,2.515c-2.507,2.718-4.177,4.945-4.177,4.945l-6.885,4.59L927.9,661.725l5.738-6.885S953.145,643.364,946.26,631.889Z" transform="translate(-31.687 -32.287)" fill="#ff6584"/>
  <circle id="Ellipse_92" data-name="Ellipse 92" cx="4.59" cy="4.59" r="4.59" transform="translate(782.029 565.748)" fill="#575a89"/>
  <path id="Path_99" data-name="Path 99" d="M845,729v7.5a10.5,10.5,0,1,0,21,0V729Z" transform="translate(-31.687 -32.287)" fill="#6c63ff"/>
  <path id="Path_100" data-name="Path 100" d="M845,729v7.5a10.5,10.5,0,1,0,21,0V729Z" transform="translate(-31.687 -32.287)" opacity="0.15"/>
</svg>
