<svg id="Group_5" data-name="Group 5" xmlns="http://www.w3.org/2000/svg" width="931.563" height="512.801" viewBox="0 0 931.563 512.801">
  <circle id="Ellipse_1" data-name="Ellipse 1" cx="26.436" cy="26.436" r="26.436" transform="translate(320.69 299.528)" fill="#6c63ff"/>
  <path id="Path_9" data-name="Path 9" d="M344.607,337.123,336.7,326.95l4.6-3.579,3.747,4.817L357.7,314.827l4.233,4.01Z" fill="#fff"/>
  <path id="Path_10" data-name="Path 10" d="M986.018,278.2h-393v-84h393Z" transform="translate(-133.719 -194.199)" fill="#fff"/>
  <circle id="Ellipse_2" data-name="Ellipse 2" cx="21.338" cy="21.338" r="21.338" transform="translate(488.885 20.662)" fill="#6c63ff"/>
  <path id="Path_11" data-name="Path 11" d="M693.224,221.973a3.556,3.556,0,0,0,0,7.113H952.883a3.556,3.556,0,0,0,0-7.113Z" transform="translate(-133.719 -194.199)" fill="#3f3d56"/>
  <path id="Path_12" data-name="Path 12" d="M693.224,243.312a3.556,3.556,0,0,0-.015,7.113H857.368a3.556,3.556,0,0,0,0-7.113Z" transform="translate(-133.719 -194.199)" fill="#3f3d56"/>
  <path id="Path_13" data-name="Path 13" d="M986.018,278.2h-393v-84h393Zm-387-6h381v-72h-381Z" transform="translate(-133.719 -194.199)" fill="#ccc"/>
  <path id="Path_14" data-name="Path 14" d="M986.018,383.2h-393v-84h393Z" transform="translate(-133.719 -194.199)" fill="#fff"/>
  <circle id="Ellipse_3" data-name="Ellipse 3" cx="21.338" cy="21.338" r="21.338" transform="translate(488.885 125.662)" fill="#e6e6e6"/>
  <path id="Path_15" data-name="Path 15" d="M693.224,326.973a3.556,3.556,0,0,0,0,7.113H952.883a3.556,3.556,0,0,0,0-7.113Z" transform="translate(-133.719 -194.199)" fill="#e6e6e6"/>
  <path id="Path_16" data-name="Path 16" d="M693.224,348.312a3.556,3.556,0,0,0-.015,7.113H857.368a3.556,3.556,0,0,0,0-7.113Z" transform="translate(-133.719 -194.199)" fill="#e6e6e6"/>
  <path id="Path_17" data-name="Path 17" d="M986.018,383.2h-393v-84h393Zm-387-6h381v-72h-381Z" transform="translate(-133.719 -194.199)" fill="#e6e6e6"/>
  <path id="Path_18" data-name="Path 18" d="M986.018,488.2h-393v-84h393Z" transform="translate(-133.719 -194.199)" fill="#fff"/>
  <circle id="Ellipse_4" data-name="Ellipse 4" cx="21.338" cy="21.338" r="21.338" transform="translate(488.885 230.662)" fill="#e6e6e6"/>
  <path id="Path_19" data-name="Path 19" d="M693.224,431.973a3.556,3.556,0,0,0,0,7.113H952.883a3.556,3.556,0,0,0,0-7.113Z" transform="translate(-133.719 -194.199)" fill="#e6e6e6"/>
  <path id="Path_20" data-name="Path 20" d="M693.224,453.312a3.556,3.556,0,0,0-.015,7.113H857.368a3.556,3.556,0,0,0,0-7.113Z" transform="translate(-133.719 -194.199)" fill="#e6e6e6"/>
  <path id="Path_21" data-name="Path 21" d="M986.018,488.2h-393v-84h393Zm-387-6h381v-72h-381Z" transform="translate(-133.719 -194.199)" fill="#e6e6e6"/>
  <path id="Path_22" data-name="Path 22" d="M334.477,508.128A9.979,9.979,0,0,1,337.7,493.17l-2.084-22.709,13.491-4.632L351.6,497.94a10.033,10.033,0,0,1-17.125,10.189Z" transform="translate(-133.719 -194.199)" fill="#ffb8b8"/>
  <path id="Path_23" data-name="Path 23" d="M348.96,377.791s9.258-19.43,17.485-12.6-11.279,64.285-11.279,64.285L352.2,485.252l-15.635-1.563-4.421-54.336Z" transform="translate(-133.719 -194.199)" fill="#e5e0b7"/>
  <path id="Path_24" data-name="Path 24" d="M91.056,471.047l11.606,9.395,41.761-40.3L127.294,426.28Z" fill="#ffb8b8"/>
  <path id="Path_25" data-name="Path 25" d="M224.881,659.06l22.857,18.5h0a18.741,18.741,0,0,1,2.774,26.357l-.383.473L212.707,674.1Z" transform="translate(-133.719 -194.199)" fill="#7eb471"/>
  <path id="Path_26" data-name="Path 26" d="M252.357,497.127h14.932l7.1-57.6H252.354Z" fill="#ffb8b8"/>
  <path id="Path_27" data-name="Path 27" d="M382.266,686.451h29.408a18.741,18.741,0,0,1,18.741,18.739v.61l-48.148,0Z" transform="translate(-133.719 -194.199)" fill="#7eb471"/>
  <path id="Path_28" data-name="Path 28" d="M412.277,421.309s28.014,34.1,21.924,68.208S423.239,549.2,423.239,549.2L413.5,625.932s3.654,20.9-1.218,26.283c0,0,7.308,12.693-6.09,17.565S385.56,668.1,385.56,668.1s-9.823-14.151-3.733-17.8L384.393,499.7,286.824,627.15s-1.793,15.5-14.295,15.668l-14.937,11.128L240.54,644.2l8.526-10.962s-4.872-12.18,6.09-14.616L318.492,535.8l15.834-42.63s8.526-32.886,31.668-46.284V432.631Z" transform="translate(-133.719 -194.199)" fill="#a36c2b"/>
  <path id="Path_29" data-name="Path 29" d="M364.167,362.236h0a23.258,23.258,0,0,1,30.656-4.328l1.012.675h0a89.777,89.777,0,0,1,21.016,43.271l4.561,24.937-57.246,12.4-13.42-46.284a26.149,26.149,0,0,1,13.42-30.67Z" transform="translate(-133.719 -194.199)" fill="#e5e0b7"/>
  <path id="Path_30" data-name="Path 30" d="M458.218,513.43a11.421,11.421,0,0,1-6.515-16.256l-16.514-20.21,9.834-13.031,22.92,28.869a11.483,11.483,0,0,1-9.725,20.628Z" transform="translate(-133.719 -194.199)" fill="#ffb8b8"/>
  <path id="Path_31" data-name="Path 31" d="M388.526,380.506s-3.654-24.36,8.526-23.142,30.45,68.208,30.45,68.208l32.886,54.81-15.834,8.526-38.976-48.72Z" transform="translate(-133.719 -194.199)" fill="#e5e0b7"/>
  <path id="Path_32" data-name="Path 32" d="M410.831,344.893h-58a4.505,4.505,0,0,1-4.5-4.5v-25a33.5,33.5,0,1,1,67,0v25A4.505,4.505,0,0,1,410.831,344.893Z" transform="translate(-133.719 -194.199)" fill="#2f2e41"/>
  <circle id="Ellipse_5" data-name="Ellipse 5" cx="24.561" cy="24.561" r="24.561" transform="translate(230.435 100.99)" fill="#ffb8b8"/>
  <path id="Path_33" data-name="Path 33" d="M423.256,317.893h-30.91l-.317-5.092-1.585,5.092h-4.759l-.628-10.092-3.141,10.092h-9.209v-.5c0-14.612,10.361-26.5,23.1-26.5h4.358c12.735,0,23.1,11.888,23.1,26.5Z" transform="translate(-133.719 -194.199)" fill="#2f2e41"/>
  <path id="Path_34" data-name="Path 34" d="M393.626,349.56a7.436,7.436,0,0,1-1.128-.087l-36.791-5.667v-38.32a14.76,14.76,0,0,1,14.76-14.76h25.74l-1,1.021c-13.95,14.2-3.44,37.233,4.066,49.7a4.912,4.912,0,0,1-.5,5.821,6.683,6.683,0,0,1-5.145,2.295Z" transform="translate(-133.719 -194.199)" fill="#2f2e41"/>
  <circle id="Ellipse_6" data-name="Ellipse 6" cx="26.436" cy="26.436" r="26.436" transform="translate(878.69 15.528)" fill="#6c63ff"/>
  <path id="Path_35" data-name="Path 35" d="M902.607,53.123,894.7,42.95l4.6-3.579,3.747,4.817L915.7,30.827l4.233,4.01Z" fill="#fff"/>
  <path id="Path_36" data-name="Path 36" d="M515.719,707h-381a1,1,0,0,1,0-2h381a1,1,0,0,1,0,2Z" transform="translate(-133.719 -194.199)" fill="#ccc"/>
</svg>
